<?xml  version="1.0" encoding="UTF-8"?>
<!DOCTYPE svg PUBLIC "-//W3C//DTD SVG 1.0//EN" "http://www.w3.org/TR/2001/REC-SVG-20010904/DTD/svg10.dtd" >
<svg xmlns="http://www.w3.org/2000/svg" >
<metadata>
<version>1.0</version>
<id><![CDATA[Proxima N W01 At Xbold It]]></id>
<vendor>Monotype Imaging Inc.</vendor>
<credits>
<name>Fonts.com WebFonts</name>
<URL>http://webfonts.fonts.com</URL>
<role>Home of the Web fonts</role>
</credits>
<license>
<URL>http://webfonts.fonts.com/Legal</URL>
</license>
<copyright><![CDATA[Copyright (c) Mark Simonson, 2005. All rights reserved.]]></copyright>
<trademark><![CDATA[Proxima Nova is a trademark of Mark Simonson.]]></trademark>
<licensee>
<name></name>
</licensee>
</metadata>
<defs >
<font horiz-adv-x="540" id="e70b711c-382b-4509-b636-acadaf2af59f">
<font-face font-family="" panose-1="2 0 5 6 3 0 0 2 0 4" ascent="741" descent="-259" units-per-em="1000" alphabetic="0">
</font-face>
<missing-glyph horiz-adv-x="0" />

<glyph unicode="&#xA;" />
<glyph unicode="&#xD;" horiz-adv-x="0" />
<glyph unicode=" " horiz-adv-x="256" />
<glyph unicode="!" horiz-adv-x="267" d="M63 233L135 667H319L200 233H63ZM90 -12Q54 -12 30 13T5 75Q5 96 13 114T35 146T68 168T108 176Q126 176 141 169T168 151T186 124T193 90Q193 69 185 51T162 18T130 -4T90 -12Z"  />
<glyph unicode="&quot;" horiz-adv-x="438" d="M112 357Q112 414 113 462Q113 482 113 502T113 539T114 568T114 584Q114 604 121 621T141 650T171 670T207 677Q236 677 257 657T278 604Q278 594 275 585T270 571Q268 567 264 556T252 530T237 495T220 457Q200 412 176 357H112ZM312 357Q312 414 313 462Q313 482 313 502T314 539T314 568T315 584Q315 604 322 621T341 650T371 670T407 677Q436 677 457 657T478 604Q478 594 475 585T470 571Q468 567 464 556T452 530T437 495T420 457Q400 412 376 357H312Z"  />
<glyph unicode="#" horiz-adv-x="632" d="M193 0L285 164H197L107 0H-3L88 164H-3L48 259H141L223 407H130L181 502H276L367 667H477L386 502H472L563 667H674L582 502H675L625 407H530L447 259H543L493 164H394L304 0H193ZM419 407H333L251 259H336L419 407Z"  />
<glyph unicode="$" horiz-adv-x="625" d="M317 -12L298 -100H187L209 0Q142 14 89 43T3 115L107 243Q130 212 165 189T243 153L268 266Q236 278 204 293T147 329T105 379T89 449Q89 491 106 531T158 604T243 657T360 677L380 768H491L468 664Q519 651 563 627T641 568L536 443Q515 466 489 482T433 509L411 408Q444 396 476 381T535 345T577 294T593 226Q593 177 574 134T520 59T434 7T320 -12H317ZM411 191Q411 203 400 212T371 230L351 141Q383 145 397 160T411 191ZM270 481Q270 461 308 444L326 527Q300 525 285 512T270 481Z"  />
<glyph unicode="%" horiz-adv-x="771" d="M76 0L649 667H737L163 0H76ZM542 -12Q509 -12 480 -3T427 25T391 69T377 128Q377 171 392 207T433 268T493 308T565 322Q598 322 628 313T681 285T717 241T731 182Q731 139 716 103T675 42T615 2T542 -12ZM546 80Q578 80 601 105T624 172Q624 198 607 214T562 230Q530 230 507 206T483 138Q483 113 500 97T546 80ZM244 343Q211 343 182 352T129 380T93 424T79 483Q79 526 94 562T135 623T195 663T267 677Q300 677 330 668T383 640T419 596T433 537Q433 494 418 458T377 397T317 357T244 343ZM248 435Q280 435 303 459T326 527Q326 552 309 568T264 585Q232 585 209 560T185 493Q185 467 202 451T248 435Z"  />
<glyph unicode="&amp;" horiz-adv-x="649" d="M402 0Q397 6 392 13T380 30Q343 10 304 -1T223 -12Q176 -12 135 -2T64 29T17 85T0 168Q0 216 15 251T57 312T118 356T189 387Q182 413 178 438T174 487Q174 528 190 562T235 622T303 662T387 677Q423 677 457 668T517 641T558 597T574 534Q574 490 557 460T510 408T444 373T369 345Q377 331 384 317T399 289Q418 253 438 220Q489 274 520 330L627 262Q599 224 568 187T500 117Q519 88 538 60T581 0H402ZM249 107Q279 107 315 124Q301 147 289 167T268 202Q257 223 246 244T226 287Q199 270 183 246T167 187Q167 147 191 127T249 107ZM327 488Q327 463 335 433Q380 448 409 467T439 519Q439 544 426 556T392 569Q368 569 348 549T327 488Z"  />
<glyph unicode="&apos;" horiz-adv-x="239" d="M112 357Q112 414 113 462Q113 482 113 502T113 539T114 568T114 584Q114 604 121 621T141 650T171 670T207 677Q236 677 257 657T278 604Q278 594 275 585T270 571Q268 567 264 556T252 530T237 495T220 457Q200 412 176 357H112Z"  />
<glyph unicode="(" horiz-adv-x="322" d="M110 -199Q66 -140 45 -56T23 115Q23 193 43 272T99 425T188 566T304 685L385 603Q291 494 237 359T183 77Q183 21 194 -34T223 -135L110 -199Z"  />
<glyph unicode=")" horiz-adv-x="322" d="M210 685Q232 656 248 620T276 542T292 458T298 371Q298 293 278 214T221 61T133 -80T17 -199L-64 -117Q30 -8 83 127T137 409Q137 465 126 520T98 621L210 685Z"  />
<glyph unicode="*" horiz-adv-x="357" d="M165 355L195 466L92 420L71 485L176 523L92 581L142 638L218 572L238 677H311L280 565L383 612L405 547L301 509L384 451L333 394L257 459L239 355H165Z"  />
<glyph unicode="+" horiz-adv-x="507" d="M315 291L271 93H169L213 291H39L60 383H234L276 574H377L335 383H509L489 291H315Z"  />
<glyph unicode="&#x2c;" horiz-adv-x="268" d="M197 83Q197 52 185 20T151 -41T100 -94T35 -136L-18 -81Q-5 -75 10 -67T40 -47T67 -24T87 3Q85 2 81 2T75 2Q46 2 25 20T4 77Q4 98 13 116T36 147T68 168T107 176Q125 176 141 170T169 153T189 124T197 83Z"  />
<glyph unicode="-" horiz-adv-x="300" d="M15 178L44 307H284L255 178H15Z"  />
<glyph unicode="." horiz-adv-x="270" d="M90 -12Q54 -12 30 13T5 75Q5 96 13 114T35 146T68 168T108 176Q126 176 141 169T168 151T186 124T193 90Q193 69 185 51T162 18T130 -4T90 -12Z"  />
<glyph unicode="/" horiz-adv-x="346" d="M-61 -20L332 687H446L52 -20H-61Z"  />
<glyph unicode="0" horiz-adv-x="624" d="M287 -12Q232 -12 186 5T107 57T55 143T36 261Q36 345 61 420T132 553T239 643T376 677Q431 677 477 660T556 608T607 523T626 405Q626 321 601 246T531 113T424 22T287 -12ZM303 140Q340 140 368 166T415 232T443 321T453 413Q453 463 431 494T359 525Q322 525 294 499T247 433T218 345T208 254Q208 203 230 172T303 140Z"  />
<glyph unicode="1" horiz-adv-x="447" d="M161 0L259 447L123 334L48 437L331 667H480L333 0H161Z"  />
<glyph unicode="2" horiz-adv-x="607" d="M-10 0L24 158Q132 216 210 260T338 339T412 403T436 461Q436 492 406 509T328 527Q274 527 234 510T163 469L94 593Q141 633 206 655T341 677Q396 677 445 664T532 624T592 561T615 474Q615 382 535 305T302 150H547L513 0H-10Z"  />
<glyph unicode="3" horiz-adv-x="602" d="M293 -12Q245 -12 199 -3T111 23T37 66T-17 127L95 232Q112 208 136 191T186 163T240 146T291 140Q342 140 365 160T389 209Q389 219 385 228T368 245T335 257T280 262Q269 262 255 262T228 262T205 261T191 260L226 413Q230 413 242 413T268 412T296 412T320 412Q372 412 403 424T435 469Q435 496 404 511T315 526Q272 526 231 514T156 477L97 593Q139 631 199 654T332 677Q396 677 448 665T537 631T593 575T613 500Q613 468 597 441T556 392T498 357T433 338Q459 332 482 321T522 291T549 249T559 191Q559 146 538 109T480 45T395 3T293 -12Z"  />
<glyph unicode="4" horiz-adv-x="616" d="M287 0L314 122H-6L28 270L359 667H607L519 273H601L567 122H486L460 0H287ZM402 517L194 273H347L402 517Z"  />
<glyph unicode="5" horiz-adv-x="617" d="M304 -12Q203 -12 129 21T10 114L130 224Q158 186 202 163T306 140Q359 140 385 165T412 223Q412 257 381 275T298 294Q259 294 235 286T184 258L74 299L154 667H638L605 517H293L266 391Q293 413 322 423T395 433Q436 433 472 421T534 384T576 324T591 244Q591 191 571 145T513 64T422 9T304 -12Z"  />
<glyph unicode="6" horiz-adv-x="617" d="M310 -12Q245 -12 194 6T106 58T51 141T32 253Q32 339 57 416T131 551T248 643T405 677Q480 677 538 654T639 591L536 469Q510 497 473 511T394 525Q364 525 338 515T290 489T252 451T227 405Q223 398 221 390T217 375Q243 403 287 420T381 438Q426 438 465 425T533 388T579 328T596 250Q596 196 573 148T511 65T420 9T310 -12ZM310 140Q355 140 385 165T416 229Q416 245 407 258T381 281T344 296T298 301Q269 301 245 292T201 267Q200 262 200 254T199 239Q199 215 208 197T232 166T268 147T310 140Z"  />
<glyph unicode="7" horiz-adv-x="560" d="M60 0L397 517H81L114 667H637L610 548L257 0H60Z"  />
<glyph unicode="8" horiz-adv-x="618" d="M292 -12Q238 -12 187 -2T96 31T32 87T7 171Q7 231 51 283T183 361Q145 380 118 414T90 492Q90 541 114 576T178 634T267 666T365 677Q414 677 463 667T552 636T616 582T641 503Q641 471 630 443T596 393T544 354T476 328Q525 301 552 263T580 180Q580 133 556 97T491 37T399 1T292 -12ZM346 410Q396 413 425 428T455 468Q455 493 426 509T353 525Q316 525 289 510T261 470Q261 459 269 450T289 433T316 419T346 410ZM300 140Q320 140 339 144T374 157T398 175T407 199Q407 212 399 222T378 241T347 256T313 268Q288 267 266 262T227 249T200 230T190 203Q190 172 219 156T300 140Z"  />
<glyph unicode="9" horiz-adv-x="617" d="M345 678Q410 678 461 660T549 608T604 525T623 413Q623 327 598 250T524 115T407 23T250 -11Q174 -11 116 12T16 75L119 198Q145 169 182 155T261 141Q291 141 317 151T365 177T403 215T428 261Q431 268 433 276T437 291Q411 263 368 246T274 228Q229 228 190 241T122 278T75 337T58 416Q58 470 81 518T143 601T235 657T345 678ZM345 526Q300 526 269 501T238 437Q238 420 247 407T273 385T310 370T356 365Q385 365 409 374T454 399Q455 404 455 412T455 427Q455 451 446 469T422 500T387 519T345 526Z"  />
<glyph unicode=":" horiz-adv-x="256" d="M90 -12Q54 -12 30 13T5 75Q5 96 13 114T35 146T68 168T108 176Q126 176 141 169T168 151T186 124T193 90Q193 69 185 51T162 18T130 -4T90 -12ZM159 302Q123 302 98 327T73 389Q73 410 81 428T104 461T136 483T176 491Q194 491 209 484T237 465T255 438T262 404Q262 383 254 365T231 332T199 310T159 302Z"  />
<glyph unicode=";" horiz-adv-x="268" d="M197 83Q197 52 185 20T151 -41T100 -94T35 -136L-18 -81Q-5 -75 10 -67T40 -47T67 -24T87 3Q85 2 81 2T75 2Q46 2 25 20T4 77Q4 98 13 116T36 147T68 168T107 176Q125 176 141 170T169 153T189 124T197 83ZM159 302Q123 302 98 327T73 389Q73 410 81 428T104 461T136 483T176 491Q194 491 209 484T237 465T255 438T262 404Q262 383 254 365T231 332T199 310T159 302Z"  />
<glyph unicode="&lt;" horiz-adv-x="507" d="M36 279L61 390L552 580L527 466L153 330L467 195L443 90L36 279Z"  />
<glyph unicode="=" horiz-adv-x="507" d="M59 381L79 473H528L508 381H59ZM18 195L38 287H487L467 195H18Z"  />
<glyph unicode="&gt;" horiz-adv-x="507" d="M-6 90L20 204L395 338L80 475L103 580L510 390L485 279L-6 90Z"  />
<glyph unicode="?" horiz-adv-x="453" d="M159 214Q145 244 145 284Q145 321 158 346T190 390T231 420T273 443T305 464T318 490Q318 527 256 527Q230 527 202 517T151 487L79 606Q127 644 179 660T283 677Q326 677 365 667T435 639T482 593T500 529Q500 485 485 456T446 405T396 370T346 342T308 312T292 271Q292 267 293 261T300 248L159 214ZM182 -12Q164 -12 149 -5T122 13T104 41T97 75Q97 96 105 114T127 146T160 168T200 176Q218 176 233 169T260 151T278 124T285 90Q285 69 277 51T255 18T222 -4T182 -12Z"  />
<glyph unicode="@" horiz-adv-x="783" d="M372 -70Q304 -70 246 -46T146 20T79 120T55 244Q55 323 88 394T175 520T302 606T452 638Q524 638 582 614T682 549T745 453T767 337Q767 272 747 225T695 146T627 100T557 85Q510 85 487 106T457 155L455 162Q429 124 392 105T319 85Q282 85 253 98T204 134T173 188T162 256Q162 305 180 349T230 426T301 478T384 498Q428 498 459 481T508 436L517 484H653L604 254Q603 250 603 242T602 229Q602 206 611 197T634 187Q649 187 664 196T692 224T713 271T721 338Q721 396 702 443T648 525T562 577T448 596Q377 596 314 568T202 491T126 380T97 247Q97 188 118 138T176 50T265 -8T377 -29Q427 -29 471 -15T557 25L580 -7Q533 -37 481 -53T372 -70ZM375 192Q409 192 431 209T467 245L489 351Q481 365 465 378T419 391Q393 391 372 381T335 353T311 313T302 268Q302 233 321 213T375 192Z"  />
<glyph unicode="A" horiz-adv-x="697" d="M467 0L456 96H192L139 0H-65L333 667H550L654 0H467ZM412 497L272 246H442L412 497Z"  />
<glyph unicode="B" horiz-adv-x="680" d="M6 0L153 667H501Q548 667 583 653T641 617T676 565T688 504Q688 471 676 442T643 389T595 350T537 332Q585 319 608 281T632 199Q632 165 620 130T579 66T506 19T397 0H6ZM435 413Q475 413 489 431T504 472Q504 492 489 504T453 517H292L270 413H435ZM383 150Q420 150 440 169T460 215Q460 238 445 250T404 263H236L211 150H383Z"  />
<glyph unicode="C" horiz-adv-x="692" d="M374 -12Q303 -12 242 9T135 69T63 165T36 291Q36 378 67 449T153 572T278 650T431 678Q498 678 549 661T639 615T701 549T739 473L573 419Q559 470 519 498T423 526Q379 526 341 509T275 461T231 389T215 302Q215 268 227 239T260 187T313 153T384 140Q404 140 425 145T465 161T501 186T530 217L663 129Q633 88 597 61T523 18T446 -5T374 -12Z"  />
<glyph unicode="D" horiz-adv-x="727" d="M6 0L153 667H428Q484 667 537 647T631 589T698 498T724 380Q724 315 701 248T627 126T491 35T285 0H6ZM211 150H317Q371 150 413 167T485 215T530 284T546 368Q546 399 535 426T505 474T458 505T397 517H292L211 150Z"  />
<glyph unicode="E" horiz-adv-x="589" d="M6 0L153 667H642L609 517H292L270 413H579L546 263H236L211 150H528L495 0H6Z"  />
<glyph unicode="F" horiz-adv-x="582" d="M6 0L153 667H642L609 517H292L270 413H579L546 263H236L178 0H6Z"  />
<glyph unicode="G" horiz-adv-x="723" d="M356 -12Q290 -12 232 10T130 71T61 167T36 291Q36 379 68 450T156 572T287 650T449 678Q505 678 551 662T632 621T692 565T728 503L570 437Q564 455 550 471T517 499T475 519T428 526Q382 526 343 508T276 460T231 388T215 302Q215 268 226 239T259 187T310 153T376 140Q432 140 472 167T532 233H357L391 384H746Q731 284 697 210T613 87T498 13T356 -12Z"  />
<glyph unicode="H" horiz-adv-x="741" d="M455 0L514 268H237L178 0H6L153 667H325L270 418H547L602 667H774L627 0H455Z"  />
<glyph unicode="I" horiz-adv-x="292" d="M6 0L153 667H325L178 0H6Z"  />
<glyph unicode="J" horiz-adv-x="492" d="M168 -12Q140 -12 112 -8T58 5T8 27T-33 59L58 188Q73 168 99 154T155 140Q197 140 222 164T257 231L353 667H525L428 229Q401 105 339 47T168 -12Z"  />
<glyph unicode="K" horiz-adv-x="654" d="M407 0L283 257L221 195L178 0H6L153 667H325L268 406L522 667H742L415 355L609 0H407Z"  />
<glyph unicode="L" horiz-adv-x="525" d="M3 0L150 667H322L209 150H476L443 0H3Z"  />
<glyph unicode="M" horiz-adv-x="877" d="M591 0L688 441L423 0H347L275 441L178 0H6L153 667H386L444 299L665 667H910L763 0H591Z"  />
<glyph unicode="N" horiz-adv-x="740" d="M460 0L265 394L178 0H6L153 667H330L517 292L600 667H773L626 0H460Z"  />
<glyph unicode="O" horiz-adv-x="766" d="M374 -12Q302 -12 241 9T134 71T62 166T36 291Q36 372 66 442T149 565T274 648T431 678Q502 678 563 657T670 596T742 501T768 377Q768 296 738 226T656 102T531 19T374 -12ZM384 140Q428 140 465 157T530 205T573 277T589 364Q589 400 577 430T542 481T488 514T420 526Q376 526 339 509T274 461T231 389T215 302Q215 266 227 236T262 185T316 152T384 140Z"  />
<glyph unicode="P" horiz-adv-x="643" d="M6 0L153 667H482Q523 667 557 652T617 611T657 550T672 476Q672 439 659 395T612 313T524 250T387 224H227L178 0H6ZM396 374Q438 374 466 397T494 457Q494 485 475 501T425 517H292L261 374H395H396Z"  />
<glyph unicode="Q" horiz-adv-x="766" d="M374 -12Q302 -12 241 9T134 71T62 166T36 291Q36 372 66 442T149 565T274 648T431 678Q502 678 563 657T670 596T742 501T768 377Q768 283 728 204T619 70L650 19L513 -45L484 3Q458 -4 431 -8T374 -12ZM401 140L354 218L492 282L535 210Q561 240 575 279T589 364Q589 400 577 430T542 481T488 514T420 526Q376 526 339 509T274 461T231 389T215 302Q215 266 227 236T262 185T316 152T384 140H401Z"  />
<glyph unicode="R" horiz-adv-x="661" d="M385 0L323 224H227L178 0H6L153 667H457Q500 667 539 654T608 615T655 553T673 472Q673 427 659 389T621 319T565 267T495 236L575 0H385ZM397 374Q442 374 468 395T494 454Q494 482 473 499T424 517H292L261 374H396H397Z"  />
<glyph unicode="S" horiz-adv-x="606" d="M308 -12Q257 -12 210 -3T121 23T47 63T-9 115L95 243Q130 197 191 169T322 140Q364 140 381 157T399 191Q399 209 375 222T316 247T238 273T161 310T101 366T77 449Q77 491 95 532T147 605T233 657T350 677Q431 677 504 649T629 568L524 443Q504 464 480 480T429 506T375 522T323 527Q294 527 276 514T258 481Q258 464 282 452T342 428T419 401T497 363T557 307T581 226Q581 177 562 134T508 59T422 7T308 -12Z"  />
<glyph unicode="T" horiz-adv-x="589" d="M155 0L268 517H81L115 667H660L627 517H441L327 0H155Z"  />
<glyph unicode="U" horiz-adv-x="750" d="M366 -12Q289 -12 232 5T136 54T79 129T60 226Q60 234 61 248T65 270L153 667H328L241 274Q240 270 239 263T238 246Q238 225 246 206T270 171T310 147T366 138Q435 138 472 176T522 274L609 667H783L696 271Q682 210 658 159T595 69T500 10T366 -12Z"  />
<glyph unicode="V" horiz-adv-x="697" d="M186 0L82 667H269L327 186L597 667H801L403 0H186Z"  />
<glyph unicode="W" horiz-adv-x="936" d="M515 0L506 418L313 0H131L87 667H276L279 222L491 667H622L638 222L837 667H1035L697 0H515Z"  />
<glyph unicode="X" horiz-adv-x="676" d="M438 0L335 215L148 0H-64L250 352L98 667H291L383 467L551 667H764L469 333L632 0H438Z"  />
<glyph unicode="Y" horiz-adv-x="655" d="M188 0L247 269L82 667H267L358 421L555 667H759L419 269L360 0H188Z"  />
<glyph unicode="Z" horiz-adv-x="596" d="M-15 0L15 137L374 517H99L132 667H643L613 531L253 150H536L503 0H-15Z"  />
<glyph unicode="[" horiz-adv-x="299" d="M-46 -190L147 678H377L355 579H233L85 -91H206L184 -190H-46Z"  />
<glyph unicode="\" horiz-adv-x="346" d="M98 687H207L287 -20H178L98 687Z"  />
<glyph unicode="]" horiz-adv-x="299" d="M-78 -190L-56 -91H65L214 579H92L114 678H344L151 -190H-78Z"  />
<glyph unicode="^" horiz-adv-x="445" d="M341 333L299 564L154 333H38L261 667H372L445 333H341Z"  />
<glyph unicode="_" horiz-adv-x="564" d="M-88 -139L-65 -40H504L481 -139H-88Z"  />
<glyph unicode="`" horiz-adv-x="263" d="M228 556L101 700H237L332 556H228Z"  />
<glyph unicode="a" horiz-adv-x="551" d="M297 0L308 48Q283 21 248 5T167 -12Q136 -12 108 -4T57 22T22 66T9 128Q9 169 23 201T62 256T118 291T187 303Q238 303 277 289T350 242L360 284Q361 287 361 293T362 304Q362 334 332 351T257 369Q187 369 127 329L93 440Q137 468 187 481T291 495Q335 495 376 487T449 459T500 409T519 334Q519 330 519 323T517 308T515 292T513 279L451 0H297ZM239 89Q268 89 289 98T324 122L333 164Q321 181 297 191T241 201Q206 201 186 185T165 140Q165 116 184 103T239 89Z"  />
<glyph unicode="b" horiz-adv-x="591" d="M315 -12Q270 -12 231 5T168 57L156 0H2L149 667H303L250 427Q282 463 315 479T388 495Q470 495 520 444T570 295Q570 242 554 188T506 89T426 17T315 -12ZM289 124Q315 124 337 135T376 165T402 209T411 262Q411 307 384 333T317 359Q290 359 267 347T225 314L193 168Q208 148 233 136T289 124Z"  />
<glyph unicode="c" horiz-adv-x="500" d="M267 -12Q210 -12 165 4T87 50T38 120T21 210Q21 270 43 322T103 412T194 473T308 495Q386 495 436 467T512 397L397 310Q384 332 361 345T306 359Q277 359 254 348T213 318T187 274T177 219Q177 174 208 149T282 124Q310 124 333 136T373 168L456 66Q443 52 425 38T382 13T329 -5T267 -12Z"  />
<glyph unicode="d" horiz-adv-x="591" d="M274 495Q319 495 358 478T421 426L475 667H628L480 0H327L340 56Q308 21 275 5T201 -12Q120 -12 70 39T20 188Q20 240 36 295T84 394T163 466T274 495ZM301 359Q274 359 252 348T214 318T188 274T179 221Q179 176 206 150T273 124Q300 124 323 136T364 169L397 315Q382 335 357 347T301 359Z"  />
<glyph unicode="e" horiz-adv-x="548" d="M278 -12Q221 -12 174 2T92 45T40 114T21 207Q21 265 42 317T100 409T190 472T304 495Q350 495 390 481T461 439T508 371T526 277Q526 254 523 229T515 191H174Q173 190 173 188T173 184Q173 175 180 163T202 139T239 120T292 112Q322 112 353 120T405 142L450 35Q415 12 369 0T278 -12ZM390 302Q390 326 368 348T295 371Q251 371 224 348T190 296H390V302Z"  />
<glyph unicode="f" horiz-adv-x="349" d="M35 0L112 350H32L62 483H141L144 494Q163 582 211 629T336 677Q368 677 398 673T455 652L401 540Q393 547 383 550T361 553Q335 553 320 537T298 494L295 483H394L364 350H266L189 0H35Z"  />
<glyph unicode="g" horiz-adv-x="590" d="M212 -196Q139 -196 78 -177T-30 -111L57 -11Q80 -41 123 -56T209 -72Q228 -72 247 -68T283 -51T313 -16T335 41L343 78Q316 45 280 27T203 9Q167 9 134 19T76 53T35 113T20 203Q20 257 37 309T86 403T165 469T271 495Q312 495 352 477T419 426L433 483H587L488 41Q471 -32 441 -78T373 -150T293 -186T212 -196ZM276 145Q302 145 326 157T367 189L394 310Q363 359 292 359Q244 359 212 325T180 233Q180 194 206 170T276 145Z"  />
<glyph unicode="h" horiz-adv-x="594" d="M330 0L391 280Q393 286 393 293T394 306Q394 335 373 347T321 359Q292 359 268 344T225 312L157 0H3L150 667H304L249 424Q263 437 279 449T314 472T356 488T406 495Q479 495 520 460T561 370Q561 362 560 350T556 330L484 0H330Z"  />
<glyph unicode="i" horiz-adv-x="266" d="M205 526Q170 526 148 548T125 602Q125 626 134 645T158 677T190 696T225 703Q260 703 282 681T305 628Q305 604 296 585T272 553T239 533T205 526ZM2 0L109 483H263L156 0H2Z"  />
<glyph unicode="j" horiz-adv-x="266" d="M-46 -196Q-97 -196 -131 -187T-190 -155L-128 -48Q-117 -61 -102 -66T-70 -72Q-44 -72 -25 -54T3 4L109 483H263L156 4Q147 -40 131 -76T91 -139T33 -181T-46 -196ZM205 526Q170 526 148 548T125 602Q125 626 134 645T158 677T190 696T225 703Q260 703 282 681T305 628Q305 604 296 585T272 553T239 533T205 526Z"  />
<glyph unicode="k" horiz-adv-x="546" d="M313 0L243 174L182 116L156 0H2L149 667H303L221 298L404 483H596L369 263L498 0H313Z"  />
<glyph unicode="l" horiz-adv-x="313" d="M190 -12Q112 -12 71 18T29 101Q29 109 30 118T33 137L149 667H303L196 180Q193 172 193 160Q193 145 206 135T240 124Q248 124 258 126T270 132L273 9Q262 1 241 -5T190 -12Z"  />
<glyph unicode="m" horiz-adv-x="875" d="M611 0L673 282Q674 287 675 294T676 306Q676 332 658 345T613 359Q587 359 566 345T529 312L460 0H306L368 282Q370 288 371 295T372 307Q371 331 355 345T309 359Q283 359 261 344T225 312L156 0H2L109 483H263L249 424Q259 434 273 446T305 470T345 488T394 495Q431 495 458 484T502 456T527 425T535 402V401Q549 418 566 435T603 465T646 487T699 495Q727 495 753 487T799 463T831 424T843 370Q843 360 841 348T838 330L764 0H611Z"  />
<glyph unicode="n" horiz-adv-x="593" d="M329 0L391 280Q394 293 394 306Q394 335 373 347T321 359Q292 359 268 344T225 312L156 0H2L109 483H263L249 424Q263 437 279 449T314 472T356 488T406 495Q479 495 520 460T561 370Q561 364 560 351T556 330L483 0H329Z"  />
<glyph unicode="o" horiz-adv-x="576" d="M269 -12Q208 -12 162 5T84 52T36 122T20 210Q20 266 41 317T99 408T189 471T305 495Q366 495 412 478T489 431T537 361T553 273Q553 217 532 166T474 75T384 12T269 -12ZM275 124Q302 124 324 136T362 167T387 212T396 265Q396 310 370 334T299 359Q272 359 250 347T211 316T187 271T178 218Q178 173 204 149T275 124Z"  />
<glyph unicode="p" horiz-adv-x="589" d="M315 -12Q270 -12 231 5T168 57L115 -184H-39L109 483H263L250 427Q282 463 315 479T388 495Q470 495 520 444T570 295Q570 242 554 188T506 89T426 17T315 -12ZM289 124Q315 124 337 135T376 165T402 209T411 262Q411 307 384 333T317 359Q290 359 267 347T225 314L193 168Q208 148 233 136T289 124Z"  />
<glyph unicode="q" horiz-adv-x="589" d="M274 495Q319 495 358 478T421 426L434 483H587L439 -184H286L340 56Q308 21 275 5T201 -12Q120 -12 70 39T20 188Q20 240 36 295T84 394T163 466T274 495ZM301 359Q274 359 252 348T214 318T188 274T179 221Q179 176 206 150T273 124Q300 124 323 136T364 169L397 315Q382 335 357 347T301 359Z"  />
<glyph unicode="r" horiz-adv-x="375" d="M2 0L109 483H263L250 425Q279 457 320 476T417 496L383 345Q377 347 364 349T333 352Q301 352 272 339T223 304L156 0H2Z"  />
<glyph unicode="s" horiz-adv-x="484" d="M225 -12Q158 -12 95 10T-14 76L70 183Q81 171 99 158T141 134T190 115T242 108Q265 108 278 117T291 141Q291 154 273 162T229 178T171 195T113 221T68 262T50 325Q50 358 63 388T103 442T168 480T257 495Q318 495 375 475T472 417L395 315Q386 325 371 335T338 355T298 369T255 375Q228 375 215 367T202 346Q202 334 220 327T265 311T323 293T381 266T426 224T444 162Q444 126 429 94T386 39T318 2T225 -12Z"  />
<glyph unicode="t" horiz-adv-x="360" d="M222 -12Q151 -12 106 15T60 101Q60 106 61 116T64 137L111 350H31L61 483H141L170 615H324L295 483H393L363 350H265L227 180Q226 176 226 172T226 164Q226 146 237 135T272 124Q280 124 289 126T302 132L304 9Q290 -1 268 -6T222 -12Z"  />
<glyph unicode="u" horiz-adv-x="592" d="M262 483L200 204Q197 189 197 178Q197 149 218 137T271 124Q300 124 324 139T366 172L435 483H589L482 0H328L342 59Q328 46 312 34T277 11T235 -5T185 -12Q112 -12 71 23T30 113Q30 119 31 132T35 153L108 483H262Z"  />
<glyph unicode="v" horiz-adv-x="524" d="M126 0L43 483H201L241 177L420 483H587L290 0H126Z"  />
<glyph unicode="w" horiz-adv-x="787" d="M430 0L405 299L249 0H83L47 483H201L213 187L374 483H511L540 187L683 483H846L596 0H430Z"  />
<glyph unicode="x" horiz-adv-x="512" d="M300 0L239 146L113 0H-60L159 248L57 483H222L275 352L386 483H560L353 248L464 0H300Z"  />
<glyph unicode="y" horiz-adv-x="592" d="M214 -196Q139 -196 78 -176T-28 -111L60 -11Q71 -26 89 -37T127 -56T169 -68T211 -72Q269 -72 296 -43T337 41L347 84Q333 71 317 59T283 36T242 20T191 14Q123 14 80 46T36 140Q36 147 37 155T41 179L109 483H263L206 229Q203 212 203 204Q203 172 225 161T276 150Q306 150 330 165T372 197L435 483H589L489 41Q478 -7 457 -50T403 -125T324 -177T214 -196Z"  />
<glyph unicode="z" horiz-adv-x="483" d="M-16 0L9 114L250 350H61L91 483H494L470 374L223 133H420L391 0H-16Z"  />
<glyph unicode="{" horiz-adv-x="302" d="M144 -190Q113 -190 86 -180T37 -151T4 -107T-8 -51Q-8 -34 -4 -18L31 137Q32 142 32 146T33 155Q33 176 23 189T-7 203L12 285Q41 285 56 304T78 351L113 506Q133 596 187 637T321 678H381L359 579H299Q238 579 221 506L180 323Q173 291 158 266T115 233Q144 216 144 176Q144 168 143 160T140 142L104 -18Q103 -23 103 -27T102 -35Q102 -61 118 -76T157 -91H211L188 -190H144Z"  />
<glyph unicode="|" horiz-adv-x="219" d="M80 -20V687H179V-20H80Z"  />
<glyph unicode="}" horiz-adv-x="302" d="M157 678Q188 678 215 668T264 639T297 595T309 539Q309 521 305 506L270 351Q269 346 269 342T268 333Q268 312 278 299T308 285L290 203Q261 203 245 184T223 137L189 -18Q169 -108 114 -149T-20 -190H-80L-58 -91H2Q63 -91 80 -18L121 165Q129 197 144 222T186 255Q157 272 157 312Q157 320 158 328T161 346L197 506Q198 511 198 515T199 523Q199 549 183 564T144 579H90L113 678H157Z"  />
<glyph unicode="~" horiz-adv-x="514" d="M579 655Q569 610 555 566T517 487T462 429T385 407Q348 407 328 419T297 451T283 491T278 532T270 563T252 576Q238 576 225 561T200 521T179 467T163 406L63 418Q72 464 87 508T125 588T181 645T258 667Q295 667 315 655T346 623T360 582T365 541T373 510T391 497Q404 497 418 513T444 553T466 608T481 667L579 655Z"  />
<glyph unicode="&#xA0;" horiz-adv-x="256" />
<glyph unicode="&#xA1;" horiz-adv-x="267" d="M204 250L131 -184H-52L66 250H204ZM176 495Q212 495 237 470T262 408Q262 387 254 369T231 337T199 315T159 307Q141 307 126 314T98 332T80 359T73 393Q73 414 81 432T104 465T136 487T176 495Z"  />
<glyph unicode="&#xA2;" horiz-adv-x="500" d="M180 0Q105 21 63 76T21 210Q21 267 41 317T98 406T183 468T290 494L306 565H415L396 483Q438 470 466 448T512 397L397 310Q385 329 365 343L318 130Q335 135 348 145T373 168L456 66Q432 40 389 17T286 -11L267 -100H158L180 0ZM177 219Q177 195 186 177T212 145L258 350Q220 335 199 300T177 219Z"  />
<glyph unicode="&#xA3;" horiz-adv-x="565" d="M51 365H112Q103 387 96 409T89 460Q89 506 111 545T170 614T256 660T361 677Q453 677 520 642T611 536L456 473Q450 505 426 521T369 538Q328 538 302 510T276 439Q276 417 282 400T294 365H433L411 269H299Q288 231 264 202T217 162Q242 169 260 169Q281 169 297 165T329 155T360 145T396 140Q422 140 440 150T472 175L508 39Q489 17 459 3T382 -12Q349 -12 318 -6T258 9T204 24T157 31Q107 31 47 -7L15 108Q69 132 104 173T140 263V269H29L51 365Z"  />
<glyph unicode="&#xA4;" horiz-adv-x="506" d="M253 222Q310 222 341 262T372 365Q372 395 364 421T341 467T304 498T253 509Q224 509 202 498T165 468T141 422T133 365Q133 334 141 308T164 263T202 233T253 222ZM19 168L88 239Q50 294 50 365Q50 436 88 489L19 560L64 603L131 534Q155 552 185 563T253 574Q289 574 320 563T375 534L442 603L487 560L418 489Q455 435 455 365Q455 330 445 298T417 240L487 168L442 125L374 194Q325 157 253 157Q181 157 132 194L64 125L19 168Z"  />
<glyph unicode="&#xA5;" horiz-adv-x="655" d="M189 0L213 111H-6L14 203H233L248 269H29L50 361H210L83 667H268L359 421L556 667H760L498 361H658L637 269H420L405 203H622L602 111H385L361 0H189Z"  />
<glyph unicode="&#xA6;" horiz-adv-x="219" d="M80 -20V296H179V-20H80ZM80 371V687H179V371H80Z"  />
<glyph unicode="&#xA7;" horiz-adv-x="492" d="M482 338Q482 313 474 290T450 247T415 213T370 189Q399 172 413 146T427 91Q427 54 411 23T367 -32T300 -68T214 -81Q137 -81 72 -59T-37 4L45 95Q60 79 79 66T120 44T166 29T213 24Q242 24 258 37T274 67Q274 85 257 96T213 117T156 137T99 163T56 203T38 266Q38 317 67 353T156 410Q127 425 110 452T92 514Q92 551 108 581T151 632T217 665T300 677Q378 677 432 658T522 604L444 520Q422 543 384 557T306 572Q273 572 259 560T244 530Q244 513 261 503T305 484T363 465T420 440T464 400T482 338ZM323 303Q323 327 306 341T266 361Q228 355 210 337T192 296Q192 273 212 259T262 236Q294 244 308 263T323 303Z"  />
<glyph unicode="&#xA8;" horiz-adv-x="306" d="M421 623Q421 606 414 590T394 562T366 543T333 536Q303 536 283 556T263 606Q263 623 270 639T290 667T319 686T352 693Q381 693 401 673T421 623ZM208 623Q208 606 201 590T181 562T152 543T119 536Q89 536 69 556T49 606Q49 623 56 639T76 667T105 686T138 693Q168 693 188 673T208 623Z"  />
<glyph unicode="&#xA9;" horiz-adv-x="778" d="M754 334Q754 263 727 200T653 90T543 16T408 -11Q337 -11 274 16T165 90T91 200T64 334Q64 406 91 468T164 578T274 652T408 679Q480 679 543 652T653 578T727 469T754 334ZM715 334Q715 397 691 453T625 550T527 616T408 640Q345 640 290 616T193 551T127 453T103 334Q103 271 127 216T192 118T289 52T408 28Q471 28 527 52T625 118T691 215T715 334ZM535 179Q508 156 471 140T394 124Q350 124 315 138T255 176T217 234T203 307Q203 358 222 401T273 476T348 526T435 544Q486 544 528 524T596 463L555 434Q537 467 506 484T432 501Q399 501 367 487T310 447T269 386T253 309Q253 281 262 255T290 210T334 179T395 167Q427 167 456 181T507 216L535 179Z"  />
<glyph unicode="&#xAA;" horiz-adv-x="415" d="M270 562Q252 562 237 554T210 533T193 501T186 464Q186 433 203 419T245 405Q260 405 275 412T301 430L326 541Q316 552 301 557T270 562ZM457 640L388 326H278L285 361Q265 338 244 328T196 318Q171 318 149 326T110 351T83 392T73 450Q73 492 86 528T122 591T175 633T240 648Q272 648 297 638T340 605L348 640H457Z"  />
<glyph unicode="&#xAB;" horiz-adv-x="571" d="M149 63L29 243L229 420H372L168 238L284 63H149ZM361 63L241 243L441 420H584L380 238L496 63H361Z"  />
<glyph unicode="&#xAC;" horiz-adv-x="521" d="M467 195H373L413 381H59L79 473H528L467 195Z"  />
<glyph unicode="&#xAD;" horiz-adv-x="300" d="M15 178L44 307H284L255 178H15Z"  />
<glyph unicode="&#xAE;" horiz-adv-x="494" d="M508 465Q508 421 492 383T446 315T378 270T295 253Q251 253 213 269T146 315T101 382T84 465Q84 509 100 548T146 615T213 660T296 677Q340 677 379 661T446 616T491 548T508 465ZM475 465Q475 502 461 535T423 592T365 630T295 644Q258 644 226 630T169 592T131 535T117 465Q117 428 131 396T169 339T225 300T295 286Q332 286 365 300T422 338T461 395T475 465ZM328 343L286 439H244L223 343H187L240 586H334Q367 586 386 567T406 522Q406 505 399 490T381 464T356 447T326 440L370 343H328ZM368 520Q368 535 359 545T326 556H270L251 470H314Q340 470 354 485T368 520Z"  />
<glyph unicode="&#xAF;" horiz-adv-x="363" d="M77 591L95 676H457L439 591H77Z"  />
<glyph unicode="&#xB0;" horiz-adv-x="321" d="M367 535Q367 505 356 480T326 435T280 404T224 393Q195 393 169 404T124 434T94 479T83 535Q83 564 94 590T124 635T169 666T224 677Q254 677 280 666T325 636T356 590T367 535ZM287 535Q287 561 269 579T224 598Q198 598 181 580T163 535Q163 509 180 492T223 474Q249 474 268 491T287 535Z"  />
<glyph unicode="&#xB1;" horiz-adv-x="507" d="M322 327L278 129H177L221 327H47L67 419H241L284 609H385L342 419H516L496 327H322ZM-25 0L-5 92H444L424 0H-25Z"  />
<glyph unicode="&#xB2;" horiz-adv-x="402" d="M83 421L102 508Q181 553 230 582T306 632T342 667T351 696Q351 716 335 726T292 737Q259 737 229 724T180 694L135 770Q166 798 211 812T297 827Q335 827 366 819T421 795T456 757T469 707Q469 657 420 612T269 511H429L409 421H83Z"  />
<glyph unicode="&#xB3;" horiz-adv-x="402" d="M438 532Q438 511 427 490T396 452T345 425T275 414Q212 414 161 434T87 488L156 558Q177 529 208 517T269 504Q299 504 312 516T325 545Q325 562 303 571T241 580Q233 580 222 580T206 579L225 667Q229 667 237 667T256 666T276 666T292 666Q354 666 354 702Q354 720 332 728T281 737Q255 737 229 729T179 703L143 774Q172 799 212 813T293 827Q375 827 422 798T470 718Q470 683 443 653T360 619Q393 611 415 590T438 532Z"  />
<glyph unicode="&#xB4;" horiz-adv-x="263" d="M173 556H67L226 700H364L173 556Z"  />
<glyph unicode="&#xB5;" horiz-adv-x="592" d="M-39 -184L109 483H263L197 187Q193 152 211 138T262 124Q296 124 322 139T366 171L435 483H589L482 0H328L340 58Q312 32 266 10T158 -12H153L115 -184H-39Z"  />
<glyph unicode="&#xB6;" horiz-adv-x="449" d="M267 -100L421 596H348L193 -100H122L216 323Q188 323 163 334T120 367T90 416T79 479Q79 514 93 548T134 608T195 651T273 667H508L338 -100H267Z"  />
<glyph unicode="&#xB7;" horiz-adv-x="270" d="M126 151Q90 151 65 176T40 238Q40 259 48 277T71 310T103 332T143 340Q161 340 176 333T204 314T222 287T229 253Q229 232 221 214T198 181T166 159T126 151Z"  />
<glyph unicode="&#xB8;" horiz-adv-x="229" d="M36 -198Q-6 -198 -39 -185T-89 -155L-50 -101Q-32 -118 -10 -127T35 -137Q55 -137 67 -130T79 -107Q79 -99 73 -93T53 -87Q37 -87 27 -100L-20 -70L29 11H100L61 -49Q69 -44 75 -42T91 -39Q117 -39 134 -56T151 -103Q151 -125 142 -142T117 -172T81 -191T36 -198Z"  />
<glyph unicode="&#xB9;" horiz-adv-x="311" d="M176 421L231 672L149 606L98 675L280 821H378L290 421H176Z"  />
<glyph unicode="&#xBA;" horiz-adv-x="405" d="M243 318Q204 318 173 329T120 360T87 406T75 465Q75 505 91 538T134 596T195 634T268 648Q307 648 338 637T391 606T424 559T436 501Q436 461 420 428T377 370T315 332T243 318ZM245 405Q266 405 280 414T305 437T319 468T324 502Q324 530 309 544T266 559Q245 559 231 550T206 527T192 496T187 462Q187 435 202 420T245 405Z"  />
<glyph unicode="&#xBB;" horiz-adv-x="571" d="M212 420L332 240L132 63H-11L193 245L77 420H212ZM424 420L544 240L344 63H201L405 245L289 420H424Z"  />
<glyph unicode="&#xBC;" horiz-adv-x="865" d="M185 0H99L672 667H760L185 0ZM760 78L743 0H630L646 78H450L467 155L671 400H831L779 167H829L809 78H760ZM696 301L582 167H666L696 301ZM142 267L197 518L115 452L64 521L246 667H344L256 267H142Z"  />
<glyph unicode="&#xBD;" horiz-adv-x="897" d="M185 0H99L672 667H760L185 0ZM485 0L504 87Q583 132 632 161T708 211T744 246T753 275Q753 295 737 305T694 316Q661 316 631 303T582 273L537 349Q568 377 613 391T699 406Q737 406 768 398T823 374T858 336T871 286Q871 236 822 191T671 90H831L811 0H485ZM142 267L197 518L115 452L64 521L246 667H344L256 267H142Z"  />
<glyph unicode="&#xBE;" horiz-adv-x="942" d="M262 0H176L749 667H837L262 0ZM837 78L820 0H707L723 78H527L544 155L748 400H908L856 167H906L886 78H837ZM773 301L659 167H743L773 301ZM404 378Q404 357 393 336T362 298T311 271T241 260Q178 260 127 280T53 334L122 404Q143 375 174 363T235 350Q265 350 278 362T291 391Q291 408 269 417T207 426Q199 426 188 426T172 425L191 513Q195 513 203 513T222 512T242 512T258 512Q320 512 320 548Q320 566 298 574T247 583Q221 583 195 575T145 549L109 620Q138 645 178 659T259 673Q341 673 388 644T436 564Q436 529 409 499T326 465Q359 457 381 436T404 378Z"  />
<glyph unicode="&#xBF;" horiz-adv-x="399" d="M293 268Q307 238 307 198Q307 161 294 136T262 92T221 62T179 39T147 18T134 -8Q134 -25 149 -34T196 -44Q222 -44 250 -35T301 -5L373 -123Q325 -161 273 -178T169 -195Q125 -195 86 -185T17 -157T-30 -111T-48 -47Q-48 -3 -33 26T6 77T56 112T106 141T144 171T160 212Q160 216 159 222T152 234L293 268ZM269 494Q287 494 302 487T330 469T348 442T355 408Q355 387 347 369T324 336T292 314T252 306Q216 306 192 331T167 393Q167 414 175 432T197 464T229 486T269 494Z"  />
<glyph unicode="&#xC0;" horiz-adv-x="697" d="M443 728L316 872H452L547 728H443ZM467 0L456 96H192L139 0H-65L333 667H550L654 0H467ZM412 497L272 246H442L412 497Z"  />
<glyph unicode="&#xC1;" horiz-adv-x="697" d="M471 728H365L524 872H662L471 728ZM467 0L456 96H192L139 0H-65L333 667H550L654 0H467ZM412 497L272 246H442L412 497Z"  />
<glyph unicode="&#xC2;" horiz-adv-x="697" d="M526 728L475 809L392 728H298L420 872H555L616 728H526ZM467 0L456 96H192L139 0H-65L333 667H550L654 0H467ZM412 497L272 246H442L412 497Z"  />
<glyph unicode="&#xC3;" horiz-adv-x="697" d="M527 726Q501 726 485 734T456 753T432 772T405 781Q379 781 369 732H290Q303 799 330 832T414 866Q440 866 456 858T485 839T509 820T536 811Q561 811 573 860H652Q638 794 611 760T527 726ZM467 0L456 96H192L139 0H-65L333 667H550L654 0H467ZM412 497L272 246H442L412 497Z"  />
<glyph unicode="&#xC4;" horiz-adv-x="697" d="M655 798Q655 781 648 765T628 737T600 718T567 711Q537 711 517 731T497 781Q497 798 504 814T524 842T553 861T586 868Q615 868 635 848T655 798ZM442 798Q442 781 435 765T415 737T386 718T353 711Q323 711 303 731T283 781Q283 798 290 814T310 842T339 861T372 868Q402 868 422 848T442 798ZM467 0L456 96H192L139 0H-65L333 667H550L654 0H467ZM412 497L272 246H442L412 497Z"  />
<glyph unicode="&#xC5;" horiz-adv-x="697" d="M461 693Q416 693 389 719T362 791Q362 815 371 836T397 874T435 900T481 910Q525 910 552 883T579 811Q579 787 570 766T544 728T507 703T461 693ZM467 761Q484 761 497 774T511 804Q511 821 501 831T474 841Q457 841 444 828T431 798Q431 781 440 771T467 761ZM467 0L456 96H192L139 0H-65L333 667H550L654 0H467ZM412 497L272 246H442L412 497Z"  />
<glyph unicode="&#xC6;" horiz-adv-x="979" d="M400 0L421 96H204L130 0H-71L476 667H1036L1002 517H686L663 413H973L940 263H630L605 150H922L889 0H400ZM507 489L318 246H454L507 489Z"  />
<glyph unicode="&#xC7;" horiz-adv-x="692" d="M374 -12Q369 -12 363 -12T352 -11L328 -49Q336 -44 342 -42T358 -39Q384 -39 401 -56T418 -103Q418 -125 409 -142T384 -172T348 -191T303 -198Q261 -198 228 -185T178 -155L217 -101Q235 -118 257 -127T302 -137Q322 -137 334 -130T346 -107Q346 -99 340 -93T320 -87Q304 -87 294 -100L247 -70L287 -3Q233 8 187 33T108 96T55 183T36 291Q36 378 67 449T153 572T278 650T431 678Q498 678 549 661T639 615T701 549T739 473L573 419Q559 470 519 498T423 526Q379 526 341 509T275 461T231 389T215 302Q215 268 227 239T260 187T313 153T384 140Q404 140 425 145T465 161T501 186T530 217L663 129Q633 88 597 61T523 18T446 -5T374 -12Z"  />
<glyph unicode="&#xC8;" horiz-adv-x="589" d="M398 728L271 872H407L502 728H398ZM6 0L153 667H642L609 517H292L270 413H579L546 263H236L211 150H528L495 0H6Z"  />
<glyph unicode="&#xC9;" horiz-adv-x="589" d="M426 728H320L479 872H617L426 728ZM6 0L153 667H642L609 517H292L270 413H579L546 263H236L211 150H528L495 0H6Z"  />
<glyph unicode="&#xCA;" horiz-adv-x="589" d="M481 728L430 809L347 728H253L375 872H510L571 728H481ZM6 0L153 667H642L609 517H292L270 413H579L546 263H236L211 150H528L495 0H6Z"  />
<glyph unicode="&#xCB;" horiz-adv-x="589" d="M613 798Q613 781 606 765T586 737T558 718T525 711Q495 711 475 731T455 781Q455 798 462 814T482 842T511 861T544 868Q573 868 593 848T613 798ZM400 798Q400 781 393 765T373 737T344 718T311 711Q281 711 261 731T241 781Q241 798 248 814T268 842T297 861T330 868Q360 868 380 848T400 798ZM6 0L153 667H642L609 517H292L270 413H579L546 263H236L211 150H528L495 0H6Z"  />
<glyph unicode="&#xCC;" horiz-adv-x="292" d="M238 728L111 872H247L342 728H238ZM6 0L153 667H325L178 0H6Z"  />
<glyph unicode="&#xCD;" horiz-adv-x="292" d="M270 728H164L323 872H461L270 728ZM6 0L153 667H325L178 0H6Z"  />
<glyph unicode="&#xCE;" horiz-adv-x="292" d="M321 728L270 809L187 728H93L215 872H350L411 728H321ZM6 0L153 667H325L178 0H6Z"  />
<glyph unicode="&#xCF;" horiz-adv-x="292" d="M453 797Q453 780 446 764T426 736T398 717T365 710Q335 710 315 730T295 780Q295 797 302 813T322 841T351 860T384 867Q413 867 433 847T453 797ZM240 797Q240 780 233 764T213 736T184 717T151 710Q121 710 101 730T81 780Q81 797 88 813T108 841T137 860T170 867Q200 867 220 847T240 797ZM6 0L153 667H325L178 0H6Z"  />
<glyph unicode="&#xD0;" horiz-adv-x="750" d="M29 0L87 265H12L42 402H117L176 667H451Q507 667 560 647T654 589T721 498T747 380Q747 315 724 248T650 126T514 35T308 0H29ZM343 150Q396 150 438 168T509 215T553 284T569 368Q569 399 558 426T528 474T481 505T420 517H315L289 402H428L398 265H259L234 150H343Z"  />
<glyph unicode="&#xD1;" horiz-adv-x="740" d="M546 726Q520 726 504 734T475 753T451 772T424 781Q398 781 388 732H309Q322 799 349 832T433 866Q459 866 475 858T504 839T528 820T555 811Q580 811 592 860H671Q657 794 630 760T546 726ZM460 0L265 394L178 0H6L153 667H330L517 292L600 667H773L626 0H460Z"  />
<glyph unicode="&#xD2;" horiz-adv-x="766" d="M479 728L352 872H488L583 728H479ZM374 -12Q302 -12 241 9T134 71T62 166T36 291Q36 372 66 442T149 565T274 648T431 678Q502 678 563 657T670 596T742 501T768 377Q768 296 738 226T656 102T531 19T374 -12ZM384 140Q428 140 465 157T530 205T573 277T589 364Q589 400 577 430T542 481T488 514T420 526Q376 526 339 509T274 461T231 389T215 302Q215 266 227 236T262 185T316 152T384 140Z"  />
<glyph unicode="&#xD3;" horiz-adv-x="766" d="M506 728H400L559 872H697L506 728ZM374 -12Q302 -12 241 9T134 71T62 166T36 291Q36 372 66 442T149 565T274 648T431 678Q502 678 563 657T670 596T742 501T768 377Q768 296 738 226T656 102T531 19T374 -12ZM384 140Q428 140 465 157T530 205T573 277T589 364Q589 400 577 430T542 481T488 514T420 526Q376 526 339 509T274 461T231 389T215 302Q215 266 227 236T262 185T316 152T384 140Z"  />
<glyph unicode="&#xD4;" horiz-adv-x="766" d="M562 728L511 809L428 728H334L456 872H591L652 728H562ZM374 -12Q302 -12 241 9T134 71T62 166T36 291Q36 372 66 442T149 565T274 648T431 678Q502 678 563 657T670 596T742 501T768 377Q768 296 738 226T656 102T531 19T374 -12ZM384 140Q428 140 465 157T530 205T573 277T589 364Q589 400 577 430T542 481T488 514T420 526Q376 526 339 509T274 461T231 389T215 302Q215 266 227 236T262 185T316 152T384 140Z"  />
<glyph unicode="&#xD5;" horiz-adv-x="766" d="M561 726Q535 726 519 734T490 753T466 772T439 781Q413 781 403 732H324Q337 799 364 832T448 866Q474 866 490 858T519 839T543 820T570 811Q595 811 607 860H686Q672 794 645 760T561 726ZM374 -12Q302 -12 241 9T134 71T62 166T36 291Q36 372 66 442T149 565T274 648T431 678Q502 678 563 657T670 596T742 501T768 377Q768 296 738 226T656 102T531 19T374 -12ZM384 140Q428 140 465 157T530 205T573 277T589 364Q589 400 577 430T542 481T488 514T420 526Q376 526 339 509T274 461T231 389T215 302Q215 266 227 236T262 185T316 152T384 140Z"  />
<glyph unicode="&#xD6;" horiz-adv-x="766" d="M691 798Q691 781 684 765T664 737T636 718T603 711Q573 711 553 731T533 781Q533 798 540 814T560 842T589 861T622 868Q651 868 671 848T691 798ZM478 798Q478 781 471 765T451 737T422 718T389 711Q359 711 339 731T319 781Q319 798 326 814T346 842T375 861T408 868Q438 868 458 848T478 798ZM374 -12Q302 -12 241 9T134 71T62 166T36 291Q36 372 66 442T149 565T274 648T431 678Q502 678 563 657T670 596T742 501T768 377Q768 296 738 226T656 102T531 19T374 -12ZM384 140Q428 140 465 157T530 205T573 277T589 364Q589 400 577 430T542 481T488 514T420 526Q376 526 339 509T274 461T231 389T215 302Q215 266 227 236T262 185T316 152T384 140Z"  />
<glyph unicode="&#xD7;" horiz-adv-x="507" d="M265 268L95 129L37 199L210 340L105 474L178 534L281 400L453 539L509 469L338 328L442 194L369 134L265 268Z"  />
<glyph unicode="&#xD8;" horiz-adv-x="766" d="M374 -12Q312 -12 258 4T161 49L110 0H-10L99 106Q69 143 53 189T36 291Q36 372 66 442T149 565T274 648T431 678Q545 678 631 624L675 667H795L696 570Q730 532 749 484T768 377Q768 296 738 226T656 102T531 19T374 -12ZM384 140Q428 140 465 157T530 205T573 277T589 364Q589 387 584 408T568 446L283 168Q325 140 384 140ZM215 302Q215 264 229 233L508 505Q489 515 467 520T420 526Q376 526 339 509T274 461T231 389T215 302Z"  />
<glyph unicode="&#xD9;" horiz-adv-x="750" d="M471 728L344 872H480L575 728H471ZM366 -12Q289 -12 232 5T136 54T79 129T60 226Q60 234 61 248T65 270L153 667H328L241 274Q240 270 239 263T238 246Q238 225 246 206T270 171T310 147T366 138Q435 138 472 176T522 274L609 667H783L696 271Q682 210 658 159T595 69T500 10T366 -12Z"  />
<glyph unicode="&#xDA;" horiz-adv-x="750" d="M499 728H393L552 872H690L499 728ZM366 -12Q289 -12 232 5T136 54T79 129T60 226Q60 234 61 248T65 270L153 667H328L241 274Q240 270 239 263T238 246Q238 225 246 206T270 171T310 147T366 138Q435 138 472 176T522 274L609 667H783L696 271Q682 210 658 159T595 69T500 10T366 -12Z"  />
<glyph unicode="&#xDB;" horiz-adv-x="750" d="M559 728L508 809L425 728H331L453 872H588L649 728H559ZM366 -12Q289 -12 232 5T136 54T79 129T60 226Q60 234 61 248T65 270L153 667H328L241 274Q240 270 239 263T238 246Q238 225 246 206T270 171T310 147T366 138Q435 138 472 176T522 274L609 667H783L696 271Q682 210 658 159T595 69T500 10T366 -12Z"  />
<glyph unicode="&#xDC;" horiz-adv-x="750" d="M685 798Q685 781 678 765T658 737T630 718T597 711Q567 711 547 731T527 781Q527 798 534 814T554 842T583 861T616 868Q645 868 665 848T685 798ZM472 798Q472 781 465 765T445 737T416 718T383 711Q353 711 333 731T313 781Q313 798 320 814T340 842T369 861T402 868Q432 868 452 848T472 798ZM366 -12Q289 -12 232 5T136 54T79 129T60 226Q60 234 61 248T65 270L153 667H328L241 274Q240 270 239 263T238 246Q238 225 246 206T270 171T310 147T366 138Q435 138 472 176T522 274L609 667H783L696 271Q682 210 658 159T595 69T500 10T366 -12Z"  />
<glyph unicode="&#xDD;" horiz-adv-x="655" d="M452 728H346L505 872H643L452 728ZM188 0L247 269L82 667H267L358 421L555 667H759L419 269L360 0H188Z"  />
<glyph unicode="&#xDE;" horiz-adv-x="643" d="M6 0L153 667H325L303 565H459Q501 565 536 550T596 508T636 447T650 374Q650 332 635 288T586 207T498 146T366 122H205L178 0H6ZM374 273Q419 273 445 297T471 355Q471 383 452 399T402 415H270L238 273H374Z"  />
<glyph unicode="&#xDF;" horiz-adv-x="665" d="M635 162Q635 127 619 96T575 40T509 2T424 -12Q351 -12 300 9T203 77L286 175Q312 146 347 128T428 110Q452 110 467 120T483 144Q483 156 468 163T429 178T379 193T329 216T291 252T275 308Q275 343 286 367T314 409T351 439T387 461T415 480T427 500Q427 518 408 529T352 541Q313 541 290 521T259 463L157 0H3L105 463Q115 506 135 545T186 613T260 659T360 677Q402 677 443 667T518 637T571 590T591 528Q591 495 579 471T549 430T509 400T470 377T439 356T427 332Q427 321 442 315T481 301T531 285T581 260T619 221T635 162Z"  />
<glyph unicode="&#xE0;" horiz-adv-x="551" d="M333 556L206 700H342L437 556H333ZM297 0L308 48Q283 21 248 5T167 -12Q136 -12 108 -4T57 22T22 66T9 128Q9 169 23 201T62 256T118 291T187 303Q238 303 277 289T350 242L360 284Q361 287 361 293T362 304Q362 334 332 351T257 369Q187 369 127 329L93 440Q137 468 187 481T291 495Q335 495 376 487T449 459T500 409T519 334Q519 330 519 323T517 308T515 292T513 279L451 0H297ZM239 89Q268 89 289 98T324 122L333 164Q321 181 297 191T241 201Q206 201 186 185T165 140Q165 116 184 103T239 89Z"  />
<glyph unicode="&#xE1;" horiz-adv-x="551" d="M367 556H261L420 700H558L367 556ZM297 0L308 48Q283 21 248 5T167 -12Q136 -12 108 -4T57 22T22 66T9 128Q9 169 23 201T62 256T118 291T187 303Q238 303 277 289T350 242L360 284Q361 287 361 293T362 304Q362 334 332 351T257 369Q187 369 127 329L93 440Q137 468 187 481T291 495Q335 495 376 487T449 459T500 409T519 334Q519 330 519 323T517 308T515 292T513 279L451 0H297ZM239 89Q268 89 289 98T324 122L333 164Q321 181 297 191T241 201Q206 201 186 185T165 140Q165 116 184 103T239 89Z"  />
<glyph unicode="&#xE2;" horiz-adv-x="551" d="M421 556L370 637L287 556H193L315 700H450L511 556H421ZM297 0L308 48Q283 21 248 5T167 -12Q136 -12 108 -4T57 22T22 66T9 128Q9 169 23 201T62 256T118 291T187 303Q238 303 277 289T350 242L360 284Q361 287 361 293T362 304Q362 334 332 351T257 369Q187 369 127 329L93 440Q137 468 187 481T291 495Q335 495 376 487T449 459T500 409T519 334Q519 330 519 323T517 308T515 292T513 279L451 0H297ZM239 89Q268 89 289 98T324 122L333 164Q321 181 297 191T241 201Q206 201 186 185T165 140Q165 116 184 103T239 89Z"  />
<glyph unicode="&#xE3;" horiz-adv-x="551" d="M420 554Q394 554 378 562T349 581T325 600T298 609Q272 609 262 560H183Q196 627 223 660T307 694Q333 694 349 686T378 667T402 648T429 639Q454 639 466 688H545Q531 622 504 588T420 554ZM297 0L308 48Q283 21 248 5T167 -12Q136 -12 108 -4T57 22T22 66T9 128Q9 169 23 201T62 256T118 291T187 303Q238 303 277 289T350 242L360 284Q361 287 361 293T362 304Q362 334 332 351T257 369Q187 369 127 329L93 440Q137 468 187 481T291 495Q335 495 376 487T449 459T500 409T519 334Q519 330 519 323T517 308T515 292T513 279L451 0H297ZM239 89Q268 89 289 98T324 122L333 164Q321 181 297 191T241 201Q206 201 186 185T165 140Q165 116 184 103T239 89Z"  />
<glyph unicode="&#xE4;" horiz-adv-x="551" d="M546 623Q546 606 539 590T519 562T491 543T458 536Q428 536 408 556T388 606Q388 623 395 639T415 667T444 686T477 693Q506 693 526 673T546 623ZM333 623Q333 606 326 590T306 562T277 543T244 536Q214 536 194 556T174 606Q174 623 181 639T201 667T230 686T263 693Q293 693 313 673T333 623ZM297 0L308 48Q283 21 248 5T167 -12Q136 -12 108 -4T57 22T22 66T9 128Q9 169 23 201T62 256T118 291T187 303Q238 303 277 289T350 242L360 284Q361 287 361 293T362 304Q362 334 332 351T257 369Q187 369 127 329L93 440Q137 468 187 481T291 495Q335 495 376 487T449 459T500 409T519 334Q519 330 519 323T517 308T515 292T513 279L451 0H297ZM239 89Q268 89 289 98T324 122L333 164Q321 181 297 191T241 201Q206 201 186 185T165 140Q165 116 184 103T239 89Z"  />
<glyph unicode="&#xE5;" horiz-adv-x="551" d="M361 544Q316 544 289 570T262 642Q262 666 271 687T297 725T335 751T381 761Q425 761 452 734T479 662Q479 638 470 617T444 579T407 554T361 544ZM367 612Q384 612 397 625T411 655Q411 672 401 682T374 692Q357 692 344 679T331 649Q331 632 340 622T367 612ZM297 0L308 48Q283 21 248 5T167 -12Q136 -12 108 -4T57 22T22 66T9 128Q9 169 23 201T62 256T118 291T187 303Q238 303 277 289T350 242L360 284Q361 287 361 293T362 304Q362 334 332 351T257 369Q187 369 127 329L93 440Q137 468 187 481T291 495Q335 495 376 487T449 459T500 409T519 334Q519 330 519 323T517 308T515 292T513 279L451 0H297ZM239 89Q268 89 289 98T324 122L333 164Q321 181 297 191T241 201Q206 201 186 185T165 140Q165 116 184 103T239 89Z"  />
<glyph unicode="&#xE6;" horiz-adv-x="872" d="M497 191V184Q497 174 505 162T528 138T566 120T616 112Q640 112 673 118T729 142L774 35Q744 13 705 1T617 -12Q542 -12 491 10T404 78Q356 35 300 12T180 -12Q148 -12 117 -4T62 22T24 65T9 128Q9 170 24 203T63 258T120 291T186 303Q237 303 280 287T350 242L359 284Q361 290 361 294T361 304Q361 334 332 351T256 369Q220 369 189 359T127 329L93 440Q137 469 186 482T290 495Q351 495 395 475T457 408Q488 445 532 470T643 495Q683 495 720 482T786 441T832 373T850 277Q850 266 849 253T846 227T842 205T839 191H497ZM714 296Q715 299 715 302Q715 315 708 327T689 349T659 365T622 371Q597 371 579 365T548 348T527 324T515 296H714ZM334 133Q332 143 332 154Q332 161 333 164Q321 182 294 191T240 201Q209 201 187 186T165 140Q165 114 185 102T238 89Q264 89 289 99T334 133Z"  />
<glyph unicode="&#xE7;" horiz-adv-x="500" d="M214 -198Q172 -198 139 -185T89 -155L128 -101Q146 -118 168 -127T213 -137Q233 -137 245 -130T257 -107Q257 -99 251 -93T231 -87Q215 -87 205 -100L158 -70L197 -5Q114 13 68 70T21 210Q21 270 43 322T103 412T194 473T308 495Q386 495 436 467T512 397L397 310Q384 332 361 345T306 359Q277 359 254 348T213 318T187 274T177 219Q177 174 208 149T282 124Q310 124 333 136T373 168L456 66Q443 52 425 38T382 13T329 -5T267 -12H263L239 -49Q247 -44 253 -42T269 -39Q295 -39 312 -56T329 -103Q329 -125 320 -142T295 -172T259 -191T214 -198Z"  />
<glyph unicode="&#xE8;" horiz-adv-x="548" d="M278 -12Q221 -12 174 2T92 45T40 114T21 207Q21 265 42 317T100 409T190 472T304 495Q350 495 390 481T461 439T508 371T526 277Q526 254 523 229T515 191H174Q173 190 173 188T173 184Q173 175 180 163T202 139T239 120T292 112Q322 112 353 120T405 142L450 35Q415 12 369 0T278 -12ZM336 556L209 700H345L440 556H336ZM390 302Q390 326 368 348T295 371Q251 371 224 348T190 296H390V302Z"  />
<glyph unicode="&#xE9;" horiz-adv-x="548" d="M278 -12Q221 -12 174 2T92 45T40 114T21 207Q21 265 42 317T100 409T190 472T304 495Q350 495 390 481T461 439T508 371T526 277Q526 254 523 229T515 191H174Q173 190 173 188T173 184Q173 175 180 163T202 139T239 120T292 112Q322 112 353 120T405 142L450 35Q415 12 369 0T278 -12ZM367 556H261L420 700H558L367 556ZM390 302Q390 326 368 348T295 371Q251 371 224 348T190 296H390V302Z"  />
<glyph unicode="&#xEA;" horiz-adv-x="548" d="M278 -12Q221 -12 174 2T92 45T40 114T21 207Q21 265 42 317T100 409T190 472T304 495Q350 495 390 481T461 439T508 371T526 277Q526 254 523 229T515 191H174Q173 190 173 188T173 184Q173 175 180 163T202 139T239 120T292 112Q322 112 353 120T405 142L450 35Q415 12 369 0T278 -12ZM420 556L369 637L286 556H192L314 700H449L510 556H420ZM390 302Q390 326 368 348T295 371Q251 371 224 348T190 296H390V302Z"  />
<glyph unicode="&#xEB;" horiz-adv-x="548" d="M278 -12Q221 -12 174 2T92 45T40 114T21 207Q21 265 42 317T100 409T190 472T304 495Q350 495 390 481T461 439T508 371T526 277Q526 254 523 229T515 191H174Q173 190 173 188T173 184Q173 175 180 163T202 139T239 120T292 112Q322 112 353 120T405 142L450 35Q415 12 369 0T278 -12ZM337 623Q337 606 330 590T310 562T281 543T248 536Q218 536 198 556T178 606Q178 623 185 639T205 667T234 686T267 693Q297 693 317 673T337 623ZM550 623Q550 606 543 590T523 562T495 543T462 536Q432 536 412 556T392 606Q392 623 399 639T419 667T448 686T481 693Q510 693 530 673T550 623ZM390 302Q390 326 368 348T295 371Q251 371 224 348T190 296H390V302Z"  />
<glyph unicode="&#xEC;" horiz-adv-x="266" d="M188 556L61 700H197L292 556H188ZM2 0L109 483H263L156 0H2Z"  />
<glyph unicode="&#xED;" horiz-adv-x="266" d="M217 556H111L270 700H408L217 556ZM2 0L109 483H263L156 0H2Z"  />
<glyph unicode="&#xEE;" horiz-adv-x="266" d="M272 556L221 637L138 556H44L166 700H301L362 556H272ZM2 0L109 483H263L156 0H2Z"  />
<glyph unicode="&#xEF;" horiz-adv-x="266" d="M401 623Q401 606 394 590T374 562T346 543T313 536Q283 536 263 556T243 606Q243 623 250 639T270 667T299 686T332 693Q361 693 381 673T401 623ZM188 623Q188 606 181 590T161 562T132 543T99 536Q69 536 49 556T29 606Q29 623 36 639T56 667T85 686T118 693Q148 693 168 673T188 623ZM2 0L109 483H263L156 0H2Z"  />
<glyph unicode="&#xF0;" horiz-adv-x="576" d="M126 540L243 574Q231 585 219 594T195 612L302 723Q365 675 414 624L522 656L537 589L464 567Q514 503 537 439T561 307Q561 243 542 185T485 84T395 14T272 -12Q215 -12 168 3T88 45T36 112T17 200Q17 252 35 298T86 377T162 430T257 450Q318 450 358 422T420 341Q413 383 381 429T304 519L141 471L126 540ZM275 124Q326 124 357 155T389 234Q389 267 363 291T286 315Q261 315 241 307T206 283T183 248T175 206Q175 167 200 146T275 124Z"  />
<glyph unicode="&#xF1;" horiz-adv-x="593" d="M337 0L399 280Q402 293 402 306Q402 335 381 347T329 359Q300 359 276 344T233 312L164 0H10L117 483H271L257 424Q271 437 287 449T322 472T364 488T414 495Q487 495 528 460T569 370Q569 364 568 351T564 330L491 0H337ZM438 554Q412 554 396 562T367 581T343 600T316 609Q290 609 280 560H201Q214 627 241 660T325 694Q351 694 367 686T396 667T420 648T447 639Q472 639 484 688H563Q549 622 522 588T438 554Z"  />
<glyph unicode="&#xF2;" horiz-adv-x="576" d="M269 -12Q208 -12 162 5T84 52T36 122T20 210Q20 266 41 317T99 408T189 471T305 495Q366 495 412 478T489 431T537 361T553 273Q553 217 532 166T474 75T384 12T269 -12ZM275 124Q302 124 324 136T362 167T387 212T396 265Q396 310 370 334T299 359Q272 359 250 347T211 316T187 271T178 218Q178 173 204 149T275 124ZM343 556L216 700H352L447 556H343Z"  />
<glyph unicode="&#xF3;" horiz-adv-x="576" d="M269 -12Q208 -12 162 5T84 52T36 122T20 210Q20 266 41 317T99 408T189 471T305 495Q366 495 412 478T489 431T537 361T553 273Q553 217 532 166T474 75T384 12T269 -12ZM275 124Q302 124 324 136T362 167T387 212T396 265Q396 310 370 334T299 359Q272 359 250 347T211 316T187 271T178 218Q178 173 204 149T275 124ZM371 556H265L424 700H562L371 556Z"  />
<glyph unicode="&#xF4;" horiz-adv-x="576" d="M269 -12Q208 -12 162 5T84 52T36 122T20 210Q20 266 41 317T99 408T189 471T305 495Q366 495 412 478T489 431T537 361T553 273Q553 217 532 166T474 75T384 12T269 -12ZM275 124Q302 124 324 136T362 167T387 212T396 265Q396 310 370 334T299 359Q272 359 250 347T211 316T187 271T178 218Q178 173 204 149T275 124ZM427 556L376 637L293 556H199L321 700H456L517 556H427Z"  />
<glyph unicode="&#xF5;" horiz-adv-x="576" d="M269 -12Q208 -12 162 5T84 52T36 122T20 210Q20 266 41 317T99 408T189 471T305 495Q366 495 412 478T489 431T537 361T553 273Q553 217 532 166T474 75T384 12T269 -12ZM275 124Q302 124 324 136T362 167T387 212T396 265Q396 310 370 334T299 359Q272 359 250 347T211 316T187 271T178 218Q178 173 204 149T275 124ZM428 554Q402 554 386 562T357 581T333 600T306 609Q280 609 270 560H191Q204 627 231 660T315 694Q341 694 357 686T386 667T410 648T437 639Q462 639 474 688H553Q539 622 512 588T428 554Z"  />
<glyph unicode="&#xF6;" horiz-adv-x="576" d="M269 -12Q208 -12 162 5T84 52T36 122T20 210Q20 266 41 317T99 408T189 471T305 495Q366 495 412 478T489 431T537 361T553 273Q553 217 532 166T474 75T384 12T269 -12ZM275 124Q302 124 324 136T362 167T387 212T396 265Q396 310 370 334T299 359Q272 359 250 347T211 316T187 271T178 218Q178 173 204 149T275 124ZM555 623Q555 606 548 590T528 562T500 543T467 536Q437 536 417 556T397 606Q397 623 404 639T424 667T453 686T486 693Q515 693 535 673T555 623ZM342 623Q342 606 335 590T315 562T286 543T253 536Q223 536 203 556T183 606Q183 623 190 639T210 667T239 686T272 693Q302 693 322 673T342 623Z"  />
<glyph unicode="&#xF7;" horiz-adv-x="511" d="M39 291L60 383H513L492 291H39ZM230 95Q204 95 186 113T168 158Q168 188 190 210T243 232Q269 232 287 214T305 169Q305 138 283 117T230 95ZM307 441Q281 441 263 459T245 504Q245 534 267 556T320 578Q346 578 364 560T382 515Q382 484 360 463T307 441Z"  />
<glyph unicode="&#xF8;" horiz-adv-x="576" d="M-28 0L59 80Q20 134 20 210Q20 266 41 317T99 408T189 471T305 495Q356 495 396 483T466 450L503 483H601L513 404Q553 349 553 273Q553 217 532 166T474 75T384 12T269 -12Q217 -12 177 0T105 34L67 0H-28ZM275 124Q302 124 324 136T362 167T387 212T396 265Q396 282 392 294L219 137Q241 124 275 124ZM178 218Q178 203 181 190L353 346Q329 359 299 359Q272 359 250 347T211 316T187 271T178 218Z"  />
<glyph unicode="&#xF9;" horiz-adv-x="592" d="M262 483L200 204Q197 189 197 178Q197 149 218 137T271 124Q300 124 324 139T366 172L435 483H589L482 0H328L342 59Q328 46 312 34T277 11T235 -5T185 -12Q112 -12 71 23T30 113Q30 119 31 132T35 153L108 483H262ZM353 556L226 700H362L457 556H353Z"  />
<glyph unicode="&#xFA;" horiz-adv-x="592" d="M262 483L200 204Q197 189 197 178Q197 149 218 137T271 124Q300 124 324 139T366 172L435 483H589L482 0H328L342 59Q328 46 312 34T277 11T235 -5T185 -12Q112 -12 71 23T30 113Q30 119 31 132T35 153L108 483H262ZM381 556H275L434 700H572L381 556Z"  />
<glyph unicode="&#xFB;" horiz-adv-x="592" d="M262 483L200 204Q197 189 197 178Q197 149 218 137T271 124Q300 124 324 139T366 172L435 483H589L482 0H328L342 59Q328 46 312 34T277 11T235 -5T185 -12Q112 -12 71 23T30 113Q30 119 31 132T35 153L108 483H262ZM436 556L385 637L302 556H208L330 700H465L526 556H436Z"  />
<glyph unicode="&#xFC;" horiz-adv-x="592" d="M262 483L200 204Q197 189 197 178Q197 149 218 137T271 124Q300 124 324 139T366 172L435 483H589L482 0H328L342 59Q328 46 312 34T277 11T235 -5T185 -12Q112 -12 71 23T30 113Q30 119 31 132T35 153L108 483H262ZM566 623Q566 606 559 590T539 562T511 543T478 536Q448 536 428 556T408 606Q408 623 415 639T435 667T464 686T497 693Q526 693 546 673T566 623ZM353 623Q353 606 346 590T326 562T297 543T264 536Q234 536 214 556T194 606Q194 623 201 639T221 667T250 686T283 693Q313 693 333 673T353 623Z"  />
<glyph unicode="&#xFD;" horiz-adv-x="592" d="M380 556H274L433 700H571L380 556ZM214 -196Q139 -196 78 -176T-28 -111L60 -11Q71 -26 89 -37T127 -56T169 -68T211 -72Q269 -72 296 -43T337 41L347 84Q333 71 317 59T283 36T242 20T191 14Q123 14 80 46T36 140Q36 147 37 155T41 179L109 483H263L206 229Q203 212 203 204Q203 172 225 161T276 150Q306 150 330 165T372 197L435 483H589L489 41Q478 -7 457 -50T403 -125T324 -177T214 -196Z"  />
<glyph unicode="&#xFE;" horiz-adv-x="589" d="M315 -12Q270 -12 231 5T168 57L115 -184H-39L149 667H303L250 427Q282 463 315 479T388 495Q470 495 520 444T570 295Q570 242 554 188T506 89T426 17T315 -12ZM289 124Q315 124 337 135T376 165T402 209T411 262Q411 307 384 333T317 359Q290 359 267 347T225 314L193 168Q208 148 233 136T289 124Z"  />
<glyph unicode="&#xFF;" horiz-adv-x="592" d="M561 623Q561 606 554 590T534 562T506 543T473 536Q443 536 423 556T403 606Q403 623 410 639T430 667T459 686T492 693Q521 693 541 673T561 623ZM348 623Q348 606 341 590T321 562T292 543T259 536Q229 536 209 556T189 606Q189 623 196 639T216 667T245 686T278 693Q308 693 328 673T348 623ZM214 -196Q139 -196 78 -176T-28 -111L60 -11Q71 -26 89 -37T127 -56T169 -68T211 -72Q269 -72 296 -43T337 41L347 84Q333 71 317 59T283 36T242 20T191 14Q123 14 80 46T36 140Q36 147 37 155T41 179L109 483H263L206 229Q203 212 203 204Q203 172 225 161T276 150Q306 150 330 165T372 197L435 483H589L489 41Q478 -7 457 -50T403 -125T324 -177T214 -196Z"  />
<glyph unicode="&#x152;" horiz-adv-x="1073" d="M494 0L507 62Q474 27 427 8T315 -12Q258 -12 208 10T119 73T58 168T36 291Q36 378 66 449T149 571T270 649T415 677Q483 677 535 654T623 583L641 667H1130L1097 517H780L758 413H1067L1034 263H724L699 150H1016L983 0H494ZM586 418Q569 469 527 497T428 525Q380 525 341 507T274 458T231 387T215 302Q215 265 227 235T261 184T312 152T376 140Q427 140 471 163T544 228L586 418Z"  />
<glyph unicode="&#x153;" horiz-adv-x="916" d="M548 191Q548 190 548 188T547 184Q547 173 554 161T577 138T614 120T664 112Q693 112 724 120T775 142L821 35Q791 15 747 2T650 -12Q614 -12 583 -4T528 17T485 46T457 79Q440 63 421 47T380 17T329 -4T267 -12Q212 -12 167 3T89 46T38 116T20 210Q20 263 40 314T96 406T185 470T303 495Q337 495 366 487T418 465T459 436T488 403Q504 419 523 435T565 465T615 486T677 495Q720 495 759 482T829 441T878 373T896 277Q896 254 893 230T885 191H548ZM760 296Q760 297 760 298T761 302Q761 327 739 349T668 371Q646 371 628 364T597 347T575 323T564 296H760ZM392 265Q392 314 365 336T297 359Q272 359 251 349T213 319T188 274T178 218Q178 173 203 149T273 124Q299 124 321 135T358 166T383 210T392 265Z"  />
<glyph unicode="&#x160;" horiz-adv-x="606" d="M337 728L276 872H366L416 791L500 872H594L472 728H337ZM308 -12Q257 -12 210 -3T121 23T47 63T-9 115L95 243Q130 197 191 169T322 140Q364 140 381 157T399 191Q399 209 375 222T316 247T238 273T161 310T101 366T77 449Q77 491 95 532T147 605T233 657T350 677Q431 677 504 649T629 568L524 443Q504 464 480 480T429 506T375 522T323 527Q294 527 276 514T258 481Q258 464 282 452T342 428T419 401T497 363T557 307T581 226Q581 177 562 134T508 59T422 7T308 -12Z"  />
<glyph unicode="&#x161;" horiz-adv-x="484" d="M225 -12Q158 -12 95 10T-14 76L70 183Q81 171 99 158T141 134T190 115T242 108Q265 108 278 117T291 141Q291 154 273 162T229 178T171 195T113 221T68 262T50 325Q50 358 63 388T103 442T168 480T257 495Q318 495 375 475T472 417L395 315Q386 325 371 335T338 355T298 369T255 375Q228 375 215 367T202 346Q202 334 220 327T265 311T323 293T381 266T426 224T444 162Q444 126 429 94T386 39T318 2T225 -12ZM245 556L184 700H274L324 619L408 700H502L380 556H245Z"  />
<glyph unicode="&#x178;" horiz-adv-x="655" d="M635 798Q635 781 628 765T608 737T580 718T547 711Q517 711 497 731T477 781Q477 798 484 814T504 842T533 861T566 868Q595 868 615 848T635 798ZM422 798Q422 781 415 765T395 737T366 718T333 711Q303 711 283 731T263 781Q263 798 270 814T290 842T319 861T352 868Q382 868 402 848T422 798ZM188 0L247 269L82 667H267L358 421L555 667H759L419 269L360 0H188Z"  />
<glyph unicode="&#x17D;" horiz-adv-x="596" d="M340 728L279 872H369L419 791L503 872H597L475 728H340ZM-15 0L15 137L374 517H99L132 667H643L613 531L253 150H536L503 0H-15Z"  />
<glyph unicode="&#x17E;" horiz-adv-x="483" d="M-16 0L9 114L250 350H61L91 483H494L470 374L223 133H420L391 0H-16ZM239 556L178 700H268L318 619L402 700H496L374 556H239Z"  />
<glyph unicode="&#x192;" horiz-adv-x="466" d="M-55 -161L32 231H-16V365H61L93 511Q110 585 156 631T282 677Q321 677 361 666T432 626L370 505Q362 516 349 521T322 527Q275 527 261 472L237 365H337V231H208L120 -161H-55Z"  />
<glyph unicode="&#x2C6;" horiz-adv-x="318" d="M297 556L246 637L163 556H69L191 700H326L387 556H297Z"  />
<glyph unicode="&#x2DC;" horiz-adv-x="334" d="M307 554Q281 554 265 562T236 581T212 600T185 609Q159 609 149 560H70Q83 627 110 660T194 694Q220 694 236 686T265 667T289 648T316 639Q341 639 353 688H432Q418 622 391 588T307 554Z"  />
<glyph unicode="&#x2013;" horiz-adv-x="593" d="M15 178L44 307H577L548 178H15Z"  />
<glyph unicode="&#x2014;" horiz-adv-x="833" d="M15 178L44 307H817L788 178H15Z"  />
<glyph unicode="&#x2018;" horiz-adv-x="268" d="M82 459Q82 490 94 522T128 583T179 636T244 678L297 623Q284 617 269 609T239 589T212 566T192 539Q194 540 198 540T204 540Q233 540 254 522T275 465Q275 444 266 426T243 395T210 373T172 365Q154 365 138 371T110 389T90 418T82 459Z"  />
<glyph unicode="&#x2019;" horiz-adv-x="268" d="M308 584Q308 553 296 521T262 460T210 406T145 365L93 419Q106 425 121 433T151 453T178 476T198 503Q195 502 192 502T186 502Q157 502 136 520T115 577Q115 598 124 616T147 647T179 669T218 677Q235 677 251 671T280 654T300 625T308 584Z"  />
<glyph unicode="&#x201A;" horiz-adv-x="268" d="M197 83Q197 52 185 20T151 -41T100 -94T35 -136L-18 -81Q-5 -75 10 -67T40 -47T67 -24T87 3Q85 2 81 2T75 2Q46 2 25 20T4 77Q4 98 13 116T36 147T68 168T107 176Q125 176 141 170T169 153T189 124T197 83Z"  />
<glyph unicode="&#x201C;" horiz-adv-x="494" d="M306 459Q306 490 318 522T352 583T403 636T468 678L521 623Q508 617 493 609T462 589T435 566T416 539Q418 540 422 540T428 540Q457 540 478 522T499 465Q499 444 490 426T467 395T434 373T396 365Q378 365 362 371T334 389T314 418T306 459ZM81 459Q81 490 93 522T127 583T178 636T243 678L296 623Q282 617 267 609T237 589T210 566T191 539Q193 540 197 540T203 540Q232 540 253 522T274 465Q274 444 265 426T242 395T208 373T170 365Q135 365 108 388T81 459Z"  />
<glyph unicode="&#x201D;" horiz-adv-x="494" d="M308 584Q308 553 296 521T262 460T210 406T145 365L93 419Q106 425 121 433T151 453T178 476T198 503Q195 502 192 502T186 502Q157 502 136 520T115 577Q115 598 124 616T147 647T179 669T218 677Q235 677 251 671T280 654T300 625T308 584ZM533 584Q533 553 521 521T487 460T436 406T371 365L318 419Q331 425 346 433T376 453T403 476T423 503Q421 502 417 502T411 502Q382 502 361 520T340 577Q340 598 349 616T372 647T404 669T443 677Q460 677 476 671T505 654T525 625T533 584Z"  />
<glyph unicode="&#x201E;" horiz-adv-x="494" d="M197 83Q197 52 185 20T151 -41T100 -94T35 -136L-18 -81Q-5 -75 10 -67T40 -47T67 -24T87 3Q85 2 81 2T75 2Q46 2 25 20T4 77Q4 98 13 116T36 147T68 168T107 176Q125 176 141 170T169 153T189 124T197 83ZM422 83Q422 52 410 20T376 -41T325 -94T260 -136L207 -81Q220 -75 235 -67T266 -47T293 -24T312 3Q310 2 306 2T300 2Q271 2 250 20T229 77Q229 98 238 116T261 147T293 168T332 176Q350 176 366 170T394 153T414 124T422 83Z"  />
<glyph unicode="&#x2020;" horiz-adv-x="284" d="M238 522L199 327H121L168 522L78 518L94 589L183 586L199 677H277L252 586L342 589L326 518L238 522Z"  />
<glyph unicode="&#x2021;" horiz-adv-x="284" d="M326 518L238 522L197 337L287 341L271 270L183 273L166 180H88L113 273L23 270L39 341L127 337L168 522L78 518L94 589L182 586L199 677H277L252 586L342 589L326 518Z"  />
<glyph unicode="&#x2022;" horiz-adv-x="358" d="M304 254Q304 226 293 202T263 159T219 130T166 119Q142 119 122 127T86 151T63 186T54 231Q54 259 65 283T95 326T139 355T192 366Q241 366 272 335T304 254Z"  />
<glyph unicode="&#x2026;" horiz-adv-x="807" d="M90 -12Q54 -12 30 13T5 75Q5 96 13 114T35 146T68 168T108 176Q126 176 141 169T168 151T186 124T193 90Q193 69 185 51T162 18T130 -4T90 -12ZM359 -12Q323 -12 299 13T274 75Q274 96 282 114T304 146T337 168T377 176Q395 176 410 169T437 151T455 124T462 90Q462 69 454 51T431 18T399 -4T359 -12ZM628 -12Q610 -12 595 -5T568 13T550 41T543 75Q543 96 551 114T573 146T606 168T646 176Q664 176 679 169T706 151T724 124T731 90Q731 69 723 51T701 18T668 -4T628 -12Z"  />
<glyph unicode="&#x2030;" horiz-adv-x="1141" d="M76 0L649 667H737L163 0H76ZM542 -12Q509 -12 480 -3T427 25T391 69T377 128Q377 171 392 207T433 268T493 308T565 322Q598 322 628 313T681 285T717 241T731 182Q731 139 716 103T675 42T615 2T542 -12ZM546 80Q578 80 601 105T624 172Q624 198 607 214T562 230Q530 230 507 206T483 138Q483 113 500 97T546 80ZM244 343Q211 343 182 352T129 380T93 424T79 483Q79 526 94 562T135 623T195 663T267 677Q300 677 330 668T383 640T419 596T433 537Q433 494 418 458T377 397T317 357T244 343ZM248 435Q280 435 303 459T326 527Q326 552 309 568T264 585Q232 585 209 560T185 493Q185 467 202 451T248 435ZM912 -12Q879 -12 850 -3T797 25T761 69T747 128Q747 171 762 207T803 268T863 308T935 322Q968 322 998 313T1051 285T1087 241T1101 182Q1101 139 1086 103T1045 42T985 2T912 -12ZM916 80Q948 80 971 105T995 172Q995 198 978 214T932 230Q900 230 877 206T853 138Q853 113 870 97T916 80Z"  />
<glyph unicode="&#x2039;" horiz-adv-x="359" d="M149 63L29 243L229 420H372L168 238L284 63H149Z"  />
<glyph unicode="&#x203A;" horiz-adv-x="359" d="M212 420L332 240L132 63H-11L193 245L77 420H212Z"  />
<glyph unicode="&#x20AC;" horiz-adv-x="715" d="M403 -12Q342 -12 288 4T190 49T116 122T73 219H11L31 311H65Q66 323 67 334T70 358H41L62 450H96Q119 503 156 545T240 616T343 662T460 678Q527 678 578 661T668 615T730 549T768 473L602 419Q588 470 548 498T452 526Q404 526 364 506T295 450H517L496 358H250Q248 347 246 335T244 311H486L466 219H265Q285 183 323 162T413 140Q433 140 454 145T494 161T530 186T559 217L692 129Q662 88 626 61T552 18T475 -5T403 -12Z"  />
<glyph unicode="&#x2122;" horiz-adv-x="454" d="M436 447L476 629L361 447H353L318 629L278 447H250L298 667H341L370 507L469 667H512L464 447H436ZM195 641L152 447H124L167 641H105L110 667H262L257 641H195Z"  />


</font>
</defs>
</svg>
